<?xml version="1.0" encoding="UTF-8" standalone="no"?>
<!-- Created with Inkscape (http://www.inkscape.org/) -->

<svg
   xmlns:dc="http://purl.org/dc/elements/1.1/"
   xmlns:cc="http://creativecommons.org/ns#"
   xmlns:rdf="http://www.w3.org/1999/02/22-rdf-syntax-ns#"
   xmlns:svg="http://www.w3.org/2000/svg"
   xmlns="http://www.w3.org/2000/svg"
   xmlns:xlink="http://www.w3.org/1999/xlink"
   xmlns:sodipodi="http://sodipodi.sourceforge.net/DTD/sodipodi-0.dtd"
   xmlns:inkscape="http://www.inkscape.org/namespaces/inkscape"
   version="1.0"
   width="289.26947"
   height="233.76683"
   id="svg2"
   inkscape:version="0.48.4 r9939"
   sodipodi:docname="Roman_Military_banner.svg">
  <metadata
     id="metadata54">
    <rdf:RDF>
      <cc:Work
         rdf:about="">
        <dc:format>image/svg+xml</dc:format>
        <dc:type
           rdf:resource="http://purl.org/dc/dcmitype/StillImage" />
      </cc:Work>
    </rdf:RDF>
  </metadata>
  <sodipodi:namedview
     pagecolor="#ffffff"
     bordercolor="#666666"
     borderopacity="1"
     objecttolerance="10"
     gridtolerance="10"
     guidetolerance="10"
     inkscape:pageopacity="0"
     inkscape:pageshadow="2"
     inkscape:window-width="1366"
     inkscape:window-height="705"
     id="namedview52"
     showgrid="false"
     fit-margin-top="0"
     fit-margin-left="0"
     fit-margin-right="0"
     fit-margin-bottom="0"
     inkscape:zoom="1.3757316"
     inkscape:cx="162.86893"
     inkscape:cy="107.2018"
     inkscape:window-x="-8"
     inkscape:window-y="-8"
     inkscape:window-maximized="1"
     inkscape:current-layer="svg2" />
  <defs
     id="Defs">
    <linearGradient
       id="linearGradient7866">
      <stop
         id="stop7868"
         style="stop-color:#af8000;stop-opacity:1"
         offset="0" />
      <stop
         id="stop7870"
         style="stop-color:#af8000;stop-opacity:0"
         offset="1" />
    </linearGradient>
    <radialGradient
       cx="437.30109"
       cy="620.93683"
       r="199.12071"
       fx="437.30109"
       fy="620.93683"
       id="radialGradient2516"
       xlink:href="#linearGradient7866"
       gradientUnits="userSpaceOnUse"
       gradientTransform="matrix(1.318552,-0.3498081,0.3580402,1.349483,-649.47291,-553.00313)" />
    <filter
       height="1.677884"
       y="-0.33894199"
       width="1.1458118"
       x="-0.072905906"
       id="filter3277"
       color-interpolation-filters="sRGB">
      <feGaussianBlur
         id="feGaussianBlur3279"
         stdDeviation="5.6648677"
         inkscape:collect="always" />
    </filter>
    <filter
       id="filter3274"
       x="-0.25375852"
       width="1.507517"
       y="-0.24677926"
       height="1.4935585"
       color-interpolation-filters="sRGB">
      <feGaussianBlur
         inkscape:collect="always"
         stdDeviation="1.0679108"
         id="feGaussianBlur3276" />
    </filter>
    <filter
       id="filter3270"
       x="-0.20584294"
       width="1.4116859"
       y="-0.25284177"
       height="1.5056835"
       color-interpolation-filters="sRGB">
      <feGaussianBlur
         inkscape:collect="always"
         stdDeviation="1.0679108"
         id="feGaussianBlur3272" />
    </filter>
    <filter
       id="filter3266"
       x="-0.19714534"
       width="1.3942907"
       y="-0.19571197"
       height="1.3914239"
       color-interpolation-filters="sRGB">
      <feGaussianBlur
         inkscape:collect="always"
         stdDeviation="1.0679108"
         id="feGaussianBlur3268" />
    </filter>
    <filter
       id="filter3262"
       x="-0.23756483"
       width="1.4751297"
       y="-0.25284177"
       height="1.5056835"
       color-interpolation-filters="sRGB">
      <feGaussianBlur
         inkscape:collect="always"
         stdDeviation="1.0679108"
         id="feGaussianBlur3264" />
    </filter>
    <filter
       id="filter3242"
       color-interpolation-filters="sRGB">
      <feGaussianBlur
         inkscape:collect="always"
         stdDeviation="6.4291911"
         id="feGaussianBlur3244" />
    </filter>
    <radialGradient
       cx="437.30109"
       cy="620.93683"
       r="199.12071"
       fx="437.30109"
       fy="620.93683"
       id="radialGradient3890"
       xlink:href="#linearGradient7866"
       gradientUnits="userSpaceOnUse"
       gradientTransform="matrix(1.318552,-0.3498081,0.3580402,1.349483,-649.47291,-553.00313)" />
    <radialGradient
       cx="437.30109"
       cy="620.93683"
       r="199.12071"
       fx="437.30109"
       fy="620.93683"
       id="radialGradient3904"
       xlink:href="#linearGradient7866"
       gradientUnits="userSpaceOnUse"
       gradientTransform="matrix(1.318552,-0.3498081,0.3580402,1.349483,-649.47291,-553.00313)" />
    <radialGradient
       cx="437.30109"
       cy="620.93683"
       r="199.12071"
       fx="437.30109"
       fy="620.93683"
       id="radialGradient3908"
       xlink:href="#linearGradient7866"
       gradientUnits="userSpaceOnUse"
       gradientTransform="matrix(1.318552,-0.3498081,0.3580402,1.349483,-649.47291,-553.00313)" />
    <radialGradient
       cx="437.30109"
       cy="620.93683"
       r="199.12071"
       fx="437.30109"
       fy="620.93683"
       id="radialGradient3911"
       xlink:href="#linearGradient7866"
       gradientUnits="userSpaceOnUse"
       gradientTransform="matrix(1.318552,-0.3498081,0.3580402,1.349483,-649.47291,-553.00313)" />
    <inkscape:perspective
       sodipodi:type="inkscape:persp3d"
       inkscape:vp_x="0 : 526.18109 : 1"
       inkscape:vp_y="0 : 1000 : 0"
       inkscape:vp_z="744.09448 : 526.18109 : 1"
       inkscape:persp3d-origin="372.04724 : 350.78739 : 1"
       id="perspective11" />
    <radialGradient
       gradientTransform="matrix(1.318552,-0.3498081,0.3580402,1.349483,-860.53985,-750.19976)"
       gradientUnits="userSpaceOnUse"
       xlink:href="#linearGradient7866-4"
       id="radialGradient4415"
       fy="620.93683"
       fx="437.30109"
       r="199.12071"
       cy="620.93683"
       cx="437.30109" />
    <radialGradient
       gradientTransform="matrix(1.318552,-0.3498081,0.3580402,1.349483,-860.53985,-750.19976)"
       gradientUnits="userSpaceOnUse"
       xlink:href="#linearGradient7866-4"
       id="radialGradient4413"
       fy="620.93683"
       fx="437.30109"
       r="199.12071"
       cy="620.93683"
       cx="437.30109" />
    <linearGradient
       id="linearGradient4340">
      <stop
         offset="0"
         style="stop-color:#af8000;stop-opacity:1"
         id="stop4342" />
      <stop
         offset="1"
         style="stop-color:#af8000;stop-opacity:0"
         id="stop4344" />
    </linearGradient>
    <radialGradient
       gradientTransform="matrix(1.318552,-0.3498081,0.3580402,1.349483,-649.47291,-553.00313)"
       gradientUnits="userSpaceOnUse"
       xlink:href="#linearGradient7866-4"
       id="radialGradient4346"
       fy="620.93683"
       fx="437.30109"
       r="199.12071"
       cy="620.93683"
       cx="437.30109" />
    <filter
       color-interpolation-filters="sRGB"
       id="filter4348"
       x="-0.072905906"
       width="1.1458118"
       y="-0.33894199"
       height="1.677884">
      <feGaussianBlur
         inkscape:collect="always"
         stdDeviation="5.6648677"
         id="feGaussianBlur4350" />
    </filter>
    <filter
       color-interpolation-filters="sRGB"
       height="1.4935585"
       y="-0.24677926"
       width="1.507517"
       x="-0.25375852"
       id="filter3274-1">
      <feGaussianBlur
         id="feGaussianBlur3276-4"
         stdDeviation="1.0679108"
         inkscape:collect="always" />
    </filter>
    <filter
       color-interpolation-filters="sRGB"
       height="1.5056835"
       y="-0.25284177"
       width="1.4116859"
       x="-0.20584294"
       id="filter3270-7">
      <feGaussianBlur
         id="feGaussianBlur3272-6"
         stdDeviation="1.0679108"
         inkscape:collect="always" />
    </filter>
    <filter
       color-interpolation-filters="sRGB"
       height="1.3914239"
       y="-0.19571197"
       width="1.3942907"
       x="-0.19714534"
       id="filter3266-5">
      <feGaussianBlur
         id="feGaussianBlur3268-2"
         stdDeviation="1.0679108"
         inkscape:collect="always" />
    </filter>
    <filter
       color-interpolation-filters="sRGB"
       height="1.5056835"
       y="-0.25284177"
       width="1.4751297"
       x="-0.23756483"
       id="filter3262-1">
      <feGaussianBlur
         id="feGaussianBlur3264-1"
         stdDeviation="1.0679108"
         inkscape:collect="always" />
    </filter>
    <filter
       color-interpolation-filters="sRGB"
       id="filter3242-1">
      <feGaussianBlur
         id="feGaussianBlur3244-7"
         stdDeviation="6.4291911"
         inkscape:collect="always" />
    </filter>
    <radialGradient
       gradientTransform="matrix(1.318552,-0.3498081,0.3580402,1.349483,-860.53985,-750.19976)"
       gradientUnits="userSpaceOnUse"
       xlink:href="#linearGradient7866-4"
       id="radialGradient3890-5"
       fy="620.93683"
       fx="437.30109"
       r="199.12071"
       cy="620.93683"
       cx="437.30109" />
    <radialGradient
       gradientTransform="matrix(1.318552,-0.3498081,0.3580402,1.349483,-649.47291,-553.00313)"
       gradientUnits="userSpaceOnUse"
       xlink:href="#linearGradient7866-4"
       id="radialGradient3904-5"
       fy="620.93683"
       fx="437.30109"
       r="199.12071"
       cy="620.93683"
       cx="437.30109" />
    <radialGradient
       gradientTransform="matrix(1.318552,-0.3498081,0.3580402,1.349483,-649.47291,-553.00313)"
       gradientUnits="userSpaceOnUse"
       xlink:href="#linearGradient7866-4"
       id="radialGradient3908-4"
       fy="620.93683"
       fx="437.30109"
       r="199.12071"
       cy="620.93683"
       cx="437.30109" />
    <radialGradient
       gradientTransform="matrix(1.318552,-0.3498081,0.3580402,1.349483,-649.47291,-553.00313)"
       gradientUnits="userSpaceOnUse"
       xlink:href="#linearGradient7866-4"
       id="radialGradient3911-2"
       fy="620.93683"
       fx="437.30109"
       r="199.12071"
       cy="620.93683"
       cx="437.30109" />
    <filter
       color-interpolation-filters="sRGB"
       height="1.677884"
       y="-0.33894199"
       width="1.1458118"
       x="-0.072905906"
       id="filter3277-8">
      <feGaussianBlur
         id="feGaussianBlur3279-8"
         stdDeviation="5.6648677"
         inkscape:collect="always" />
    </filter>
    <radialGradient
       gradientTransform="matrix(1.318552,-0.3498081,0.3580402,1.349483,-651.83818,-542.85994)"
       gradientUnits="userSpaceOnUse"
       xlink:href="#linearGradient7866-4"
       id="radialGradient2516-4"
       fy="620.93683"
       fx="437.30109"
       r="199.12071"
       cy="620.93683"
       cx="437.30109" />
    <linearGradient
       id="linearGradient7866-4">
      <stop
         offset="0"
         style="stop-color:#af8000;stop-opacity:1"
         id="stop7868-0" />
      <stop
         offset="1"
         style="stop-color:#af8000;stop-opacity:0"
         id="stop7870-9" />
    </linearGradient>
    <radialGradient
       inkscape:collect="always"
       xlink:href="#linearGradient7866"
       id="radialGradient3160"
       gradientUnits="userSpaceOnUse"
       gradientTransform="matrix(1.318552,-0.3498081,0.3580402,1.349483,-649.47291,-553.00313)"
       cx="437.30109"
       cy="620.93683"
       fx="437.30109"
       fy="620.93683"
       r="199.12071" />
    <radialGradient
       inkscape:collect="always"
       xlink:href="#linearGradient7866"
       id="radialGradient3162"
       gradientUnits="userSpaceOnUse"
       gradientTransform="matrix(1.318552,-0.3498081,0.3580402,1.349483,-649.47291,-553.00313)"
       cx="437.30109"
       cy="620.93683"
       fx="437.30109"
       fy="620.93683"
       r="199.12071" />
  </defs>
  <g
     id="Gladii"
     transform="translate(-2.196236,10.091027)">
    <path
       d="m 40.21875,8.6875 c -0.214691,0.021347 -0.382473,0.069975 -0.5,0.1875 -3.57321,3.573102 40.008047,55.139311 49.59375,65.09375 l 40.25,41.8125 -37.84375,36.59375 c -3.415137,-1.70655 -5.573836,-0.40529 -8,2 -0.808725,0.80177 -1.542077,1.7345 -2.5,2.71875 -3.25842,3.34793 -4.627225,7.28527 -1.375,11.1875 1.091136,1.30925 2.13691,2.53187 0.5,4.90625 L 57,196.71875 54.5,196.125 c -5.507637,-1.11761 -8.375494,-0.43511 -11.5625,2.71875 -3.599524,3.56216 -4.348948,8.65073 -2.3125,14.46875 0.605675,1.73045 0.636537,2.92098 0.1875,3.65625 -0.680743,1.11467 -0.261016,3.31426 0.875,4.53125 1.217045,1.13599 3.416531,1.55572 4.53125,0.875 0.735291,-0.44902 1.925744,-0.41814 3.65625,0.1875 5.81819,2.03641 10.906473,1.28689 14.46875,-2.3125 3.153949,-3.18692 3.805149,-6.05504 2.6875,-11.5625 l -0.5625,-2.53125 23.5,-23.3125 c 2.374449,-1.63686 3.628207,-0.62235 4.9375,0.46875 3.902373,3.25212 7.83947,1.91457 11.1875,-1.34375 3.93709,-3.83158 6.99424,-5.94666 4.71875,-10.5 L 147,133.875 l 36.1875,37.59375 c -2.27549,4.55334 0.78166,6.66842 4.71875,10.5 3.34803,3.25832 7.28513,4.59587 11.1875,1.34375 1.30929,-1.0911 2.56305,-2.10561 4.9375,-0.46875 l 23.5,23.3125 -0.5625,2.53125 c -1.11765,5.50746 -0.46646,8.37558 2.6875,11.5625 3.56228,3.59939 8.65056,4.34891 14.46875,2.3125 1.73051,-0.60564 2.92097,-0.63652 3.65625,-0.1875 1.11472,0.68072 3.31421,0.26099 4.53125,-0.875 1.13602,-1.21699 1.55574,-3.41658 0.875,-4.53125 -0.44904,-0.73527 -0.41819,-1.9258 0.1875,-3.65625 2.03645,-5.81802 1.28702,-10.90659 -2.3125,-14.46875 -3.18701,-3.15386 -6.05487,-3.83636 -11.5625,-2.71875 l -2.5,0.59375 -23.34375,-23.53125 c -1.63691,-2.37438 -0.59113,-3.597 0.5,-4.90625 3.25223,-3.90223 1.88341,-7.83957 -1.375,-11.1875 -0.95793,-0.98425 -1.69128,-1.91698 -2.5,-2.71875 -2.42616,-2.40529 -4.58487,-3.70655 -8,-2 l -37.84375,-36.59375 40.25,-41.8125 C 214.2732,64.014311 257.85446,12.448102 254.28125,8.875 250.52037,5.1142144 195.50028,51.996822 186.09375,61.09375 L 147,98.90625 107.90625,61.09375 C 98.793674,52.281101 46.874172,8.0257486 40.21875,8.6875 z"
       id="Gladii_Main"
       style="opacity:0.5;fill:url(#radialGradient3160);fill-opacity:1"
       inkscape:connector-curvature="0" />
    <path
       d="m 39.75,9.625 c -3.573209,3.573102 40.008047,55.13931 49.59375,65.09375 l 49.21875,51.125 -35.03125,35.25 c 6.77804,6.77804 7.125,11.125 7.125,11.125 l 36.28125,-37.6875 36.28125,37.6875 c 0,0 0.19105,-4.19105 7.125,-11.125 L 39.75,9.625 z m 214.375,0 -97.78125,98.34375 8.375,8.09375 39.8125,-41.34375 C 214.11696,64.76431 257.69821,13.198102 254.125,9.625 z"
       id="Gladii_BladeAccent"
       style="opacity:0.5;fill:url(#radialGradient3890);fill-opacity:1"
       inkscape:connector-curvature="0" />
    <path
       d="m 213.5,173.18761 c -4.43618,1.22594 -8.13726,3.55453 -9.46875,9.4375 l 0.0937,0.125 -0.0937,0.0937 13.65625,13.5625 9.6875,9.75 0.0625,-0.0625 0.0937,0.0625 c 4.43618,-1.22594 8.13726,-3.55453 9.46875,-9.4375 l -0.0937,-0.125 0.0937,-0.0937 -13.65625,-13.5625 -9.6875,-9.75 -0.0625,0.0625 -0.0937,-0.0625 z"
       id="Gladii_HandleAccent"
       style="opacity:0.5;fill:url(#radialGradient3162);fill-opacity:1"
       inkscape:connector-curvature="0" />
    <use
       transform="matrix(-1,0,0,1,294,0)"
       id="use3913"
       x="0"
       y="0"
       width="294"
       height="232.34036"
       xlink:href="#Gladii_HandleAccent" />
  </g>
  <g
     id="Wash out"
     style="fill:#ffffff"
     transform="translate(-2.196236,10.091027)">
    <use
       id="use4125"
       style="fill:#ffffff;fill-opacity:1;filter:url(#filter3277)"
       x="0"
       y="0"
       width="294"
       height="232.34036"
       xlink:href="#SPQR" />
    <use
       id="use4123"
       style="fill:#ffffff;fill-opacity:1;filter:url(#filter3277)"
       x="0"
       y="0"
       width="294"
       height="232.34036"
       xlink:href="#SPQR" />
    <use
       id="Shadow"
       style="filter:url(#filter3277)"
       x="0"
       y="0"
       width="294"
       height="232.34036"
       xlink:href="#SPQR" />
  </g>
  <g
     id="Text Hack"
     style="fill:#af8000"
     transform="translate(-2.196236,10.091027)">
    <path
       d="m 71.391367,109.2956 c 0,-1.00539 -0.188686,-1.94128 -0.565998,-2.80768 -0.377372,-0.86639 -0.873448,-1.68374 -1.48827,-2.45209 -0.614841,-0.7683 -1.313467,-1.50189 -2.095856,-2.20074 -0.78241,-0.6988 -1.578663,-1.38334 -2.388758,-2.053637 -0.670273,-0.58667 -1.333716,-1.159499 -1.990328,-1.718504 -0.656633,-0.558945 -1.243526,-1.138826 -1.76072,-1.739602 -0.517195,-0.600757 -0.929507,-1.222408 -1.236918,-1.864976 -0.307411,-0.642527 -0.461116,-1.327067 -0.461116,-2.053641 0,-0.699232 0.125777,-1.335171 0.377332,-1.907817 0.251554,-0.572586 0.593946,-1.068461 1.027154,-1.487624 0.433188,-0.419102 0.936095,-0.740376 1.508721,-0.963821 0.572606,-0.223384 1.180415,-0.335096 1.823386,-0.335136 0.671122,4e-5 1.292976,0.10472 1.865622,0.314039 0.572606,0.209379 1.082546,0.509757 1.529839,0.901134 0.447253,0.391458 0.789624,0.866437 1.027134,1.424957 0.237469,0.558581 0.356214,1.187488 0.356234,1.8867 -2e-5,0.195314 0.111692,0.320889 0.335137,0.376705 0.223404,0.0559 0.405037,0.01388 0.5449,-0.125979 0.391397,-0.530391 0.615023,-1.193834 0.6709,-1.990329 0.05584,-0.796434 0.08376,-1.572014 0.08378,-2.326738 l 0,-1.509367 c -2e-5,-0.195254 -0.111733,-0.320607 -0.335137,-0.376059 -1.285963,-0.363247 -2.669554,-0.54488 -4.150751,-0.5449 -1.06169,2e-5 -2.221229,0.13966 -3.478598,0.4189 -1.257389,0.279321 -2.430973,0.71934 -3.520793,1.320055 -1.089821,0.600797 -2.004818,1.362311 -2.745013,2.284523 -0.740174,0.922293 -1.110271,2.025956 -1.110271,3.31103 0,0.866416 0.188464,1.711694 0.565371,2.535855 0.376908,0.824221 0.872782,1.641571 1.487624,2.452091 0.614821,0.81056 1.320479,1.607035 2.116954,2.389401 0.796455,0.78243 1.59976,1.56462 2.409875,2.34657 l 0,-0.0422 c 0.726534,0.72657 1.439225,1.43924 2.138052,2.13807 0.698828,0.69883 1.32048,1.39042 1.864976,2.07474 0.544475,0.68434 0.984494,1.37593 1.320055,2.07474 0.335541,0.69885 0.503331,1.39745 0.503331,2.09586 0,0.72655 -0.174601,1.38316 -0.523802,1.96985 -0.349202,0.5867 -0.796253,1.0896 -1.341153,1.50872 -0.54492,0.41915 -1.152729,0.74062 -1.823407,0.96447 -0.670697,0.22385 -1.327512,0.33577 -1.970483,0.33577 -0.726554,0 -1.425159,-0.11192 -2.095857,-0.33577 -0.670698,-0.22385 -1.271454,-0.54532 -1.802289,-0.96447 -0.530835,-0.41912 -0.942925,-0.92906 -1.236271,-1.52983 -0.293345,-0.60076 -0.411888,-1.27847 -0.355587,-2.03317 l 0.04092,-0.67026 c 0,-0.11171 -0.04179,-0.19549 -0.125353,-0.25135 -0.08358,-0.0559 -0.195274,-0.0838 -0.335137,-0.0838 -0.111712,0 -0.216594,0.0209 -0.314665,0.0627 -0.09807,0.0418 -0.160738,0.11855 -0.188019,0.23024 -0.0563,0.22427 -0.112359,0.46901 -0.168215,0.73421 -0.05586,0.26522 -0.11149,0.55175 -0.166922,0.85959 -0.111712,0.39056 -0.209561,0.78154 -0.293568,1.17295 -0.08399,0.39142 -0.125979,0.81054 -0.125979,1.25737 0,0.72656 0.174601,1.3414 0.523802,1.84451 0.349182,0.50313 0.78922,0.90135 1.320055,1.1947 0.530835,0.29334 1.117729,0.50291 1.760721,0.6287 0.642971,0.12578 1.257792,0.18867 1.844484,0.18867 1.201532,0 2.458901,-0.21659 3.772146,-0.6498 1.313224,-0.43319 2.514757,-1.041 3.604577,-1.82339 1.0898,-0.78241 1.990955,-1.7185 2.703444,-2.80832 0.712448,-1.08982 1.068702,-2.3054 1.068702,-3.6468 l 0,0 z m 16.371557,-7.5865 c -2.1e-5,-0.55853 -0.230457,-1.09641 -0.691371,-1.61361 -0.460914,-0.517172 -1.012867,-0.775779 -1.655839,-0.775799 -0.670253,2e-5 -1.194055,0.209581 -1.571407,0.628704 -0.377332,0.419145 -0.566018,0.908405 -0.565998,1.467775 -2e-5,0.53043 0.174581,1.0681 0.523803,1.613 0.349181,0.54492 0.845278,0.81737 1.48825,0.81735 0.278856,2e-5 0.564946,-0.0558 0.858292,-0.16757 0.293346,-0.11169 0.558985,-0.26539 0.796899,-0.46111 0.237914,-0.1957 0.433612,-0.42616 0.587116,-0.69137 0.153503,-0.2652 0.230234,-0.53765 0.230255,-0.81737 l 0,0 z m 32.471896,-7.711845 c -2e-5,-1.704621 -0.30743,-3.053049 -0.92223,-4.045243 -0.61486,-0.992153 -1.41134,-1.739582 -2.38943,-2.242307 -0.97811,-0.502664 -2.09585,-0.823938 -3.35322,-0.963821 -1.25739,-0.139822 -2.52864,-0.209743 -3.81372,-0.209783 l -3.39479,0 c -0.41957,4e-5 -0.83891,0.01411 -1.25804,0.04221 -0.41912,0.02817 -0.85211,0.02817 -1.29893,0 -0.475,-0.02811 -0.93592,-0.04218 -1.38275,-0.04221 -0.41956,4e-5 -0.86682,4e-5 -1.34179,0 l -0.88006,0 c -0.223406,4e-5 -0.377131,0.0559 -0.461118,0.167568 -0.08401,0.111732 -0.08421,0.23753 -6.46e-4,0.377332 0.139862,0.307875 0.370524,0.496561 0.692014,0.566018 0.32148,0.06954 0.64978,0.132426 0.98492,0.188686 0.19614,0.02817 0.39184,0.06313 0.58714,0.104882 0.19527,0.04181 0.36987,0.125595 0.52378,0.251352 0.15393,0.125798 0.2797,0.314484 0.37735,0.565998 0.0976,0.251595 0.14645,0.586731 0.14645,1.00541 l 0,23.388833 c 0,0.6984 -0.0138,1.25717 -0.0416,1.67629 -0.0277,0.41912 -0.12555,0.75446 -0.29354,1.00603 -0.168,0.25156 -0.41957,0.44728 -0.75469,0.58712 -0.33513,0.13984 -0.79605,0.26564 -1.38274,0.37733 -0.2797,0.0554 -0.41251,0.18804 -0.39845,0.39783 0.0141,0.20976 0.16096,0.3283 0.44067,0.35558 1.70379,0.0844 3.40097,0.11256 5.09155,0.0844 1.69058,-0.0282 3.37412,-0.0422 5.05063,-0.0422 0.19613,0 0.34302,-0.0488 0.44067,-0.14647 0.0976,-0.0976 0.10466,-0.21637 0.0211,-0.35624 -0.13986,-0.30698 -0.34942,-0.48158 -0.62868,-0.5238 -0.27928,-0.0422 -0.61464,-0.0774 -1.00604,-0.10553 -0.22342,-0.0273 -0.47499,-0.062 -0.75468,-0.10423 -0.2797,-0.0422 -0.48906,-0.13283 -0.62806,-0.27183 -0.0563,-0.0563 -0.12642,-0.23811 -0.21041,-0.54554 -0.084,-0.30741 -0.16076,-0.64275 -0.23023,-1.00604 -0.0695,-0.36327 -0.13219,-0.70544 -0.18804,-1.02649 -0.0559,-0.32107 -0.0838,-0.53786 -0.0838,-0.65045 l 0,-24.100023 c 0.39055,-0.139822 0.80947,-0.2656 1.25675,-0.377332 0.44725,-0.111692 0.90839,-0.167528 1.38338,-0.167568 0.97809,4e-5 1.8513,0.230477 2.61964,0.69137 0.76833,0.460935 1.41791,1.054658 1.94876,1.781192 0.53082,0.726553 0.93608,1.550956 1.2158,2.473188 0.27969,0.922273 0.41955,1.844302 0.41955,2.76611 0,2.039798 -0.57988,3.632526 -1.7396,4.778183 -1.15976,1.14568 -2.77359,1.7185 -4.8415,1.7185 -0.13986,0 -0.2797,0 -0.41954,0 -0.13987,0 -0.27931,-0.0141 -0.41828,-0.0422 -0.13986,2e-5 -0.2518,0.049 -0.33578,0.1471 -0.084,0.0981 -0.13986,0.22386 -0.16757,0.37735 -0.0277,0.1535 -0.0207,0.29314 0.0211,0.4189 0.0418,0.1258 0.13259,0.20275 0.27245,0.23088 0.75468,0.22344 1.56478,0.33516 2.43034,0.33514 1.31323,2e-5 2.52883,-0.2863 3.6468,-0.85894 1.11793,-0.57261 2.08197,-1.32707 2.89209,-2.26341 0.81009,-0.936315 1.4388,-1.991155 1.88607,-3.164557 0.44725,-1.173362 0.67088,-2.374895 0.6709,-3.604578 l 0,0 z m 16.40098,7.711845 c -2e-5,-0.55853 -0.23048,-1.09641 -0.69137,-1.61361 -0.46092,-0.517172 -1.01287,-0.775779 -1.65584,-0.775799 -0.67025,2e-5 -1.19406,0.209581 -1.57141,0.628704 -0.37733,0.419145 -0.56602,0.908405 -0.56602,1.467775 0,0.53043 0.17461,1.0681 0.52381,1.613 0.3492,0.54492 0.8453,0.81737 1.48827,0.81735 0.27885,2e-5 0.56494,-0.0558 0.85829,-0.16757 0.29334,-0.11169 0.55898,-0.26539 0.7969,-0.46111 0.23791,-0.1957 0.43361,-0.42616 0.58711,-0.69137 0.15351,-0.2652 0.23024,-0.53765 0.23026,-0.81737 l 0,0 z m 71.36886,20.24474 -0.46176,-0.67025 c -1.36872,0.55854 -2.77256,0.99152 -4.21152,1.29893 -1.43908,0.30741 -2.91327,0.46114 -4.4226,0.46114 -2.1234,0 -4.22606,-0.25838 -6.308,-0.77515 -2.08203,-0.51677 -4.14293,-1.19428 -6.18267,-2.03253 -2.03981,-0.83826 -4.03077,-1.78844 -5.97288,-2.85054 -1.94217,-1.06209 -3.82141,-2.13805 -5.63775,-3.22787 2.1796,-1.64836 3.85634,-3.68814 5.03016,-6.11936 1.17379,-2.43117 1.7607,-4.98772 1.76072,-7.66964 -2e-5,-2.291314 -0.42619,-4.380118 -1.27848,-6.266433 -0.85235,-1.886255 -2.0121,-3.507133 -3.47923,-4.862593 -1.46717,-1.35542 -3.19273,-2.403247 -5.17661,-3.143462 -1.98396,-0.740154 -4.09344,-1.110251 -6.32849,-1.110271 -2.3195,2e-5 -4.48506,0.412111 -6.49669,1.236271 -2.01165,0.824201 -3.76511,1.969877 -5.26039,3.437009 -1.49531,1.467193 -2.67594,3.19273 -3.54192,5.176632 -0.86597,1.983943 -1.29895,4.135211 -1.29895,6.453827 0,2.40391 0.39121,4.61168 1.1736,6.62331 0.78239,2.01165 1.88607,3.73698 3.31103,5.17599 1.42494,1.43902 3.14344,2.55677 5.15552,3.35324 2.01205,0.79646 4.24732,1.1947 6.70582,1.1947 0.64295,0 1.25779,-0.0699 1.8445,-0.20978 0.58667,-0.13984 1.15973,-0.29335 1.71914,-0.46049 0.47495,-0.13984 0.91497,-0.27265 1.32007,-0.39845 0.40502,-0.12578 0.76105,-0.18867 1.06806,-0.18867 l 0.20978,0 c 0.55937,0.22343 1.16035,0.48885 1.80294,0.79626 0.6425,0.30743 1.24306,0.6287 1.80164,0.96382 0.30781,0.16799 0.67811,0.36371 1.11092,0.58713 0.43274,0.22341 0.80304,0.40504 1.11091,0.5449 1.45307,0.69841 2.98291,1.39701 4.58952,2.09586 1.60655,0.69881 3.23424,1.32068 4.88306,1.8656 1.64875,0.5449 3.32526,0.99195 5.02954,1.34116 1.70418,0.3492 3.39495,0.5238 5.07238,0.5238 2.03971,0 4.00957,-0.26542 5.90955,-0.79625 1.89987,-0.53084 3.71623,-1.31345 5.44908,-2.34784 l 0,0 z m -31.22605,-21.33455 c -2e-5,1.64924 -0.21661,3.23513 -0.64978,4.75772 -0.43323,1.52258 -1.06213,2.93367 -1.88672,4.23326 -0.82462,1.2996 -1.83769,2.45231 -3.03921,3.45813 -1.20155,1.00581 -2.57063,1.788 -4.10728,2.34654 -2.0398,-0.25156 -3.91201,-0.86618 -5.61663,-1.84386 -1.70466,-0.97766 -3.17161,-2.20712 -4.40085,-3.68836 -1.22924,-1.48122 -2.18623,-3.15793 -2.87099,-5.03016 -0.68476,-1.87221 -1.02713,-3.82821 -1.02713,-5.868006 0,-1.788183 0.28651,-3.408839 0.85956,-4.861946 0.57305,-1.453067 1.38337,-2.696593 2.431,-3.730577 1.04758,-1.033924 2.29792,-1.830197 3.75102,-2.388778 1.45307,-0.558521 3.05966,-0.837781 4.81975,-0.837821 1.87262,4e-5 3.53549,0.370117 4.9886,1.110291 1.45306,0.740215 2.68252,1.725133 3.68836,2.954776 1.00579,1.229683 1.76731,2.654842 2.28452,4.275477 0.51716,1.620676 0.77576,3.325115 0.77578,5.113314 l 0,0 z m 21.33711,1.08981 c 0,-0.55853 -0.23045,-1.09641 -0.69137,-1.61361 -0.46091,-0.517172 -1.01284,-0.775779 -1.65582,-0.775799 -0.67027,2e-5 -1.19407,0.209581 -1.5714,0.628704 -0.37735,0.419145 -0.56602,0.908405 -0.56602,1.467775 0,0.53043 0.1746,1.0681 0.5238,1.613 0.3492,0.54492 0.8453,0.81737 1.48827,0.81735 0.27884,2e-5 0.56495,-0.0558 0.85829,-0.16757 0.29335,-0.11169 0.55897,-0.26539 0.7969,-0.46111 0.23792,-0.1957 0.43362,-0.42616 0.58712,-0.69137 0.15348,-0.2652 0.23023,-0.53765 0.23023,-0.81737 l 0,0 z m 43.1603,15.80234 -0.25198,-0.71249 c -1.06171,0.16715 -2.10952,-0.0217 -3.14346,-0.56664 -1.03399,-0.5449 -2.04683,-1.2853 -3.03856,-2.22121 -0.99177,-0.93589 -1.94175,-1.99756 -2.84989,-3.18501 -0.90821,-1.18745 -1.78142,-2.34016 -2.61966,-3.45813 -0.50313,-0.6711 -0.99923,-1.3418 -1.48825,-2.01207 -0.48909,-0.67025 -0.95703,-1.24328 -1.40384,-1.71913 0.6148,-0.58669 1.20852,-1.23627 1.78117,-1.94876 0.5726,-0.71245 1.08254,-1.47374 1.52984,-2.283878 0.44725,-0.810096 0.81052,-1.641309 1.08982,-2.49366 0.27924,-0.852311 0.41888,-1.711674 0.4189,-2.57809 -2e-5,-0.195254 -0.007,-0.404816 -0.0211,-0.628685 -0.0141,-0.223828 -0.0488,-0.405664 -0.10426,-0.545546 -0.33513,-1.396787 -0.85212,-2.521346 -1.55093,-3.373697 -0.69885,-0.85229 -1.53028,-1.508903 -2.49429,-1.969857 -0.96406,-0.460873 -2.01187,-0.768304 -3.14346,-0.922252 -1.13161,-0.153887 -2.2841,-0.230841 -3.45748,-0.230881 l -2.22184,0 c -0.25157,4e-5 -0.49609,0.0071 -0.73358,0.02112 -0.23749,0.01409 -0.48203,0.02114 -0.73359,0.0211 -0.44685,4e-5 -0.87983,0.0071 -1.29894,0.0211 -0.41914,0.01411 -0.86619,0.0071 -1.34117,-0.0211 l -2.76675,0 -0.75469,0 c -0.19527,4e-5 -0.33491,0.04907 -0.4189,0.147097 -0.084,0.09809 -0.0838,0.216635 6.3e-4,0.355608 0.0836,0.279725 0.26499,0.461581 0.54427,0.545547 0.27928,0.08403 0.61462,0.13966 1.00604,0.166921 0.19527,0.02817 0.39077,0.06333 0.58647,0.105529 0.19571,0.04223 0.37735,0.12602 0.54492,0.251352 0.16754,0.125373 0.30718,0.327902 0.4189,0.607587 0.11171,0.279725 0.16757,0.657057 0.16757,1.132015 l 0,23.21999 c 0,0.67112 -0.0139,1.22327 -0.0416,1.65646 -0.0277,0.43321 -0.11855,0.77538 -0.27245,1.02651 -0.15393,0.25113 -0.39845,0.44663 -0.73359,0.58647 -0.33514,0.13986 -0.81012,0.26564 -1.42494,0.37735 -0.2797,0.0563 -0.41251,0.18909 -0.39845,0.39845 0.0141,0.20934 0.16096,0.32808 0.44067,0.35623 1.70464,0.0836 3.40928,0.12536 5.11394,0.12536 1.70378,0 3.40801,0 5.11268,0 0.2234,0 0.37711,-0.0697 0.46111,-0.20914 0.084,-0.13944 0.042,-0.27906 -0.126,-0.41892 -0.25157,-0.22343 -0.53788,-0.36307 -0.85892,-0.41892 -0.32107,-0.0558 -0.63553,-0.0978 -0.94337,-0.12598 -0.13899,-0.0281 -0.32745,-0.0563 -0.56537,-0.0844 -0.23793,-0.0281 -0.42637,-0.0699 -0.56537,-0.12536 -0.0844,-0.0563 -0.16844,-0.23791 -0.25198,-0.5449 -0.0836,-0.30698 -0.16736,-0.64915 -0.25135,-1.0265 -0.084,-0.37733 -0.14689,-0.73379 -0.18869,-1.06935 -0.0418,-0.33556 -0.0627,-0.57283 -0.0627,-0.71184 l 0,-7.79627 c 0.2234,-0.0281 0.46089,-0.0422 0.71247,-0.0422 0.2797,2e-5 0.53126,2e-5 0.75468,0 0.58669,2e-5 1.25034,0.0559 1.99097,0.16757 0.7406,0.11173 1.36203,0.39101 1.86431,0.83784 0.67111,0.58669 1.32091,1.30621 1.94941,2.15852 0.62846,0.85233 1.26418,1.72576 1.90717,2.62029 0.64295,0.92183 1.30662,1.82979 1.99095,2.72389 0.68432,0.89412 1.42472,1.69763 2.22121,2.41052 0.79646,0.7129 1.66283,1.28575 2.59919,1.71851 0.9363,0.43276 1.99114,0.64915 3.16456,0.64915 0.72652,0 1.43898,-0.0838 2.13743,-0.25135 0.69836,-0.16757 1.36906,-0.40483 2.01205,-0.71182 l 0,0 z M 226.73108,96.469797 c -2e-5,0.503149 -0.035,1.020122 -0.1049,1.550936 -0.0699,0.530856 -0.18869,1.047848 -0.35623,1.550957 -0.16759,0.50313 -0.38396,0.9713 -0.64916,1.40447 -0.26521,0.43322 -0.59352,0.80352 -0.98492,1.11093 -0.39143,0.30743 -0.89456,0.48907 -1.50936,0.5449 -0.61487,0.0559 -1.15977,0.0838 -1.63475,0.0838 -1.20153,2e-5 -2.36085,-0.084 -3.47793,-0.252 l 0,-13.790254 c 0.75382,-0.251534 1.53623,-0.377311 2.34719,-0.377352 1.06167,4.1e-5 1.99073,0.244563 2.78723,0.733586 0.79645,0.489085 1.4601,1.117991 1.99095,1.88672 0.53082,0.768769 0.92884,1.641996 1.19406,2.619639 0.26519,0.977704 0.3978,1.95559 0.39782,2.933678 l 0,0 z"
       id="SPQR"
       inkscape:connector-curvature="0" />
  </g>
  <g
     style="fill:#b08000;fill-opacity:0.35294118;stroke:none"
     transform="matrix(0.40541313,0,0,0.33606381,-0.20574716,11.643365)"
     id="g3056">
    <g
       id="layer3"
       inkscape:label="wood"
       style="fill:#b08000;fill-opacity:0.35294118;stroke:none;display:inline"
       transform="translate(-13.780518,-162.03807)" />
    <g
       inkscape:label="Layer 1"
       id="layer1"
       style="fill:#b08000;fill-opacity:0.56862745;stroke:none;display:inline"
       transform="translate(-13.780518,-197.19186)">
      <g
         style="fill:#b08000;fill-opacity:0.56862745;stroke:none"
         id="g22249">
        <path
           inkscape:connector-curvature="0"
           sodipodi:nodetypes="cssscccccccccc"
           id="path18706"
           d="M 209.27003,228.48717 C 126.4415,284.23868 71.502116,381.43789 71.502117,492.04375 c 0,172.91976 134.165743,313.24482 299.495473,313.24484 165.32973,0 299.52716,-140.3251 299.52717,-313.24484 0,-114.14724 -58.5102,-214.06504 -145.81786,-268.82706 -19.97232,-9.62545 -109.79462,-64.7486 0,9.94428 27.87138,18.10281 52.91519,40.93635 73.36847,67.65426 50.72355,64.73881 73.04721,152.25245 61.48373,235.0828 -11.21167,85.65805 -60.05895,164.25772 -128.95736,211.31596 -67.71391,47.29219 -154.87151,61.45327 -233.51139,39.81028 -83.9225,-22.091 -155.89989,-86.607 -191.61372,-168.92019 -38.301929,-86.02751 -33.718859,-191.15511 10.39519,-273.79919 22.15822,-42.64278 54.81575,-78.76579 93.39821,-105.64141 109.04759,-81.63547 27.9658,-29.22285 0,-10.17631 z"
           style="fill:#b08000;fill-opacity:0.56862745;stroke:none;display:inline" />
        <path
           inkscape:connector-curvature="0"
           id="path17799"
           d="m 242.66654,842.78293 c 0.003,-1.15358 58.14668,-30.15428 68.56088,-34.19639 14.37277,-5.57854 38.06321,-9.59251 46.46023,-7.87192 l 6.10302,1.25054 -6.81552,8.15764 c -3.74851,4.4867 -9.97658,10.35833 -13.84015,13.04806 -9.32288,6.49042 -32.13314,14.25205 -49.59508,16.87571 -12.3011,1.84826 -50.87615,3.92309 -50.87338,2.73636 z m 231.51474,-0.6364 c -26.10784,-1.57665 -28.09448,-1.94068 -52.43368,-9.60763 -14.56162,-4.587 -18.2858,-6.804 -29.52703,-17.57746 l -12.86367,-12.32845 5.68009,-1.59084 c 14.61317,-4.09278 61.50938,9.40771 82.04811,23.62005 3.90291,2.70072 9.33185,5.57882 12.0643,6.39576 6.22786,1.86198 23.84691,10.86853 23.84691,12.19013 0,0.54102 -1.11783,0.83853 -2.48405,0.66112 -1.36623,-0.17744 -13.21516,-0.97064 -26.33098,-1.76268 z M 190.00561,807.2158 c -10.92983,-3.39704 -23.76121,-7.28948 -28.51418,-8.64991 l -8.64175,-2.47353 14.60347,-2.52803 c 8.03191,-1.39043 23.27091,-4.30186 33.86445,-6.46987 29.54056,-6.04559 59.12946,-4.28949 78.26988,4.64532 l 5.11689,2.38858 -6.38927,5.71525 c -16.73596,14.97041 -53.88429,18.0716 -88.30949,7.37219 z m 295.24387,2.35341 c -14.21522,-5.23757 -27.20087,-14.35259 -23.48362,-16.48384 7.76637,-4.45288 33.67939,-9.93274 46.96962,-9.93274 12.25304,0 44.52486,5.05777 75.31209,11.80318 5.80381,1.27161 3.35254,2.39252 -22.05104,10.08352 -24.92975,7.54753 -30.96792,8.6435 -47.26816,8.57943 -13.38102,-0.0526 -21.7517,-1.20248 -29.47889,-4.04955 z M 320.87997,793.14726 C 308.3347,789.42312 282.2316,759.152 277.47304,742.80931 l -1.37255,-4.71382 8.58276,4.48595 c 4.72052,2.46727 14.76506,6.64026 22.32121,9.27331 25.1307,8.7571 36.68855,18.22488 43.93298,35.98842 l 3.06903,7.52529 -13.44057,-0.18363 c -7.3923,-0.10098 -16.25098,-1.0179 -19.68593,-2.03757 z m 70.83077,-1.40633 c 0,-5.5491 14.16829,-23.6456 23.42829,-29.92383 4.08651,-2.77065 13.15899,-6.96438 20.16111,-9.31941 7.0021,-2.35503 17.13715,-6.45954 22.5223,-9.12116 l 9.79125,-4.83928 -1.26571,5.16668 c -3.05824,12.4838 -22.43253,37.76183 -34.49198,45.00245 -6.92521,4.15793 -12.31858,5.53491 -24.51203,6.25807 -14.70326,0.87203 -15.63323,0.68029 -15.63323,-3.22352 z m -125.19629,-9.99904 c -21.47734,-7.84833 -36.67411,-25.61782 -44.79053,-52.37323 -2.74578,-9.05136 -5.54586,-20.40875 -6.22239,-25.23863 l -1.23005,-8.78155 26.76475,27.1053 c 27.61909,27.97055 33.25145,36.33993 34.97036,51.96421 0.99941,9.08413 -0.82439,10.49132 -9.49214,7.3239 z m 201.24981,-6.69853 c 2.34866,-17.93985 12.54137,-31.68266 50.34,-67.87318 l 12.12711,-11.61116 -1.61358,10.45769 c -5.17014,33.50805 -22.24706,62.68841 -42.27889,72.24445 -5.5937,2.66843 -12.3002,4.86064 -14.90332,4.87157 -4.37345,0.0184 -4.65231,-0.59604 -3.67132,-8.08937 z M 156.22248,763.03563 c -22.87613,-7.27277 -28.80014,-10.28748 -50.70143,-25.80193 -12.126454,-8.59012 -21.776103,-15.81827 -21.4437,-16.06253 3.002567,-2.20632 74.6618,5.79529 80.93911,9.03782 1.7212,0.88908 8.94216,4.51731 16.04655,8.06271 7.1044,3.54538 16.40658,9.58539 20.67151,13.4222 l 7.75447,6.97606 -7.13286,3.05337 c -11.85428,5.07449 -32.45648,5.66056 -46.13365,1.3123 z m 394.75255,1.6393 c -4.76173,-0.95911 -9.9263,-2.82244 -11.4768,-4.14079 -3.65809,-3.1104 -0.18046,-7.23308 14.55327,-17.25255 16.30252,-11.08634 34.70917,-16.79166 61.61559,-19.09835 34.64178,-2.96986 44.05627,-3.3073 42.98743,-1.54082 -2.28152,3.77077 -43.20975,30.36908 -52.76258,34.28921 -22.2787,9.14233 -37.39139,11.27321 -54.91691,7.7433 z M 193.5076,737.74585 c -12.48042,-9.6484 -23.7012,-26.08315 -26.34825,-38.59144 -1.26539,-5.97949 -1.98223,-22.3157 -1.62978,-37.14206 l 0.62912,-26.46765 7.26219,14.25181 c 3.99418,7.8385 9.6033,17.75836 12.46465,22.04413 13.89823,20.8169 21.65255,49.02867 17.84253,64.91476 l -1.799,7.50096 -8.42146,-6.51051 z m 347.71641,-13.9257 c 1.05171,-21.95713 4.4343,-32.79356 14.9521,-47.90059 2.47081,-3.54889 8.41688,-13.97764 13.21352,-23.175 l 8.72115,-16.72247 1.3916,17.11537 c 1.67341,20.5817 -1.12448,46.98401 -6.13718,57.91331 -3.91522,8.53646 -20.78845,27.07915 -28.47758,31.29513 l -4.67376,2.56266 1.01015,-21.08841 z M 118.20367,698.72113 c -6.70156,-1.51858 -15.19091,-4.35376 -18.86523,-6.30042 C 87.347299,686.0678 66.90867,667.93562 57.928456,655.68372 53.09284,649.08641 46.451159,640.711 43.169145,637.0717 c -6.731209,-7.46403 -6.334426,-7.81133 4.211585,-3.68636 4.120811,1.61181 12.517866,3.94244 18.660111,5.17921 12.82918,2.58318 35.049889,12.9885 47.552649,22.26752 9.50161,7.0517 24.29412,23.97264 28.85274,33.00418 2.71128,5.37158 2.66458,5.8438 -0.58024,5.86934 -1.94076,0.0153 -5.3172,0.42128 -7.50317,0.9022 -2.18596,0.4809 -9.45758,-0.36809 -16.15915,-1.88666 z m 487.63244,1.55169 c -3.0057,-0.47604 -5.4649,-1.32861 -5.4649,-1.89468 0,-4.04519 12.15382,-20.71717 21.62277,-29.66104 13.07443,-12.34936 39.90003,-26.84113 55.97751,-30.2402 5.9576,-1.25954 14.75179,-3.6104 19.54264,-5.22409 10.32227,-3.47679 12.55385,-2.45742 5.29201,2.4174 -2.87157,1.92765 -8.29865,8.18512 -12.06021,13.9055 -11.62455,17.678 -17.97457,23.74031 -42.39142,40.47079 -9.20381,6.30645 -32.25772,11.85124 -42.5184,10.22632 z M 134.8364,673.22518 c -5.15292,-6.16762 -7.61763,-11.89717 -10.10313,-23.48599 -1.80815,-8.43051 -3.28754,-18.86605 -3.28754,-23.19009 0,-11.32183 7.25431,-45.79546 11.73798,-55.78075 3.7732,-8.40311 3.82746,-8.43579 4.00097,-2.41068 0.0968,3.35935 3.29048,18.93451 7.09716,34.61149 4.33615,17.85732 6.93084,33.49863 6.94689,41.87689 0.0254,13.23001 -4.38868,33.25193 -7.80801,35.41702 -0.97279,0.61598 -4.83572,-2.5511 -8.58432,-7.03789 z m 463.81475,2.43682 c -8.0487,-20.83519 -7.74186,-34.4563 1.63765,-72.69284 3.2962,-13.4374 6.00457,-26.89707 6.0186,-29.9104 0.0829,-17.80169 8.80263,2.30894 13.96817,32.21526 4.965,28.74535 -1.46965,62.23839 -13.74331,71.53516 l -5.7542,4.35859 -2.12691,-5.50577 z M 81.978312,618.13777 C 67.731905,612.95459 53.464301,601.47266 44.955778,588.34367 41.117941,582.42173 32.647672,566.55154 26.132955,553.0766 l -11.844937,-24.49994 9.362714,5.51512 c 5.149498,3.03334 14.58948,9.23551 20.977765,13.7826 6.388268,4.54712 14.751309,10.21786 18.584502,12.60173 14.388209,8.94799 30.711039,35.03578 33.632344,53.75262 1.47546,9.45323 0.834714,9.6217 -14.867031,3.90904 z m 564.099458,1.05349 c 0,-1.7158 2.80778,-10.57898 6.2395,-19.69597 7.02345,-18.65902 16.3182,-30.41371 33.27231,-42.07826 15.50126,-10.66496 40.7825,-26.71085 42.0964,-26.71838 2.09727,-0.012 -23.94602,51.85062 -30.83933,61.41349 -8.06647,11.19039 -21.40197,21.08302 -35.57494,26.39044 -12.34481,4.62282 -15.19394,4.75198 -15.19394,0.68868 z M 95.80435,592.84978 c -5.348049,-14.6444 -5.413429,-33.1634 -0.178432,-50.52798 4.257319,-14.12151 29.772352,-56.50336 29.677002,-49.29509 -0.31342,23.6973 -4.28445,71.21554 -6.57063,78.62621 -3.90094,12.64481 -9.90974,24.40726 -14.76753,28.90812 -3.93004,3.64126 -4.05908,3.51936 -8.16041,-7.71126 z m 543.78303,7.57442 c -4.79884,-5.45933 -12.5935,-22.79859 -15.17776,-33.76305 -2.03081,-8.61634 -6.58801,-74.76393 -5.25126,-76.22177 1.48691,-1.62161 25.44585,39.00577 29.14318,49.41833 6.12164,17.23991 6.06244,41.18214 -0.13462,54.45857 -2.48274,5.31899 -4.72412,9.67088 -4.98086,9.67088 -0.25674,0 -1.87614,-1.60333 -3.59868,-3.56296 z M 59.452888,527.42458 C 41.281644,515.16446 31.02183,494.44716 25.175507,458.20955 c -1.644166,-10.19117 -3.63028,-20.26921 -4.413597,-22.39567 -1.092682,-2.96642 0.244731,-2.4447 5.746177,2.24161 3.943678,3.35935 9.356077,7.65829 12.027525,9.55321 8.363611,5.93247 29.678654,38.43615 33.574511,51.19832 4.403465,14.42516 4.957394,35.9571 0.925018,35.9571 -1.48721,0 -7.59924,-3.30278 -13.582253,-7.33954 z m 609.151652,-7.81427 c 1.47207,-17.84152 6.06154,-31.25967 15.4067,-45.04449 6.99009,-10.31086 36.95159,-41.60026 39.83481,-41.60026 0.89269,0 0.74112,2.37655 -0.3368,5.28122 -1.07795,2.9047 -3.21588,13.21179 -4.75097,22.90469 -5.39696,34.07692 -16.76271,55.93174 -34.83499,66.98287 -16.09461,9.84178 -16.80162,9.44839 -15.31875,-8.52403 z M 80.658679,509.62113 c -0.902628,-7.4015 -0.295382,-15.06665 1.895131,-23.92268 5.48902,-22.19131 11.578668,-32.28548 30.91543,-51.24521 9.852,-9.65988 17.91271,-17.09616 17.91271,-16.52502 0,0.57115 -1.42993,5.79152 -3.17766,11.60082 -9.67396,32.156 -15.72228,49.78864 -19.29442,56.24908 -5.48765,9.92481 -23.678767,34.73422 -25.468336,34.73422 -0.800062,0 -2.052349,-4.90105 -2.782855,-10.89121 z m 571.855511,1.05385 c -16.1191,-19.58503 -24.79232,-39.50672 -39.15041,-89.92525 l -1.44949,-5.08993 4.93223,5.08993 c 2.71274,2.79947 11.65897,11.79213 19.88049,19.98369 12.73653,12.69014 15.74372,17.05802 20.32482,29.52159 5.71667,15.55308 8.42045,38.01473 5.51262,45.79621 -1.69871,4.54583 -2.0299,4.36864 -10.05026,-5.37624 z M 66.6203,443.36745 C 50.759,433.45816 44.424794,411.50355 46.921305,375.0902 c 0.85016,-12.40001 1.567792,-25.45047 1.594757,-29.00098 0.04763,-6.27579 0.237721,-6.13413 6.829503,5.08992 3.729274,6.34998 8.018694,12.95081 9.532065,14.66855 4.086938,4.63885 11.932691,23.86774 14.796684,36.26474 2.517159,10.89579 1.894701,22.34072 -2.026486,37.26001 -2.369631,9.01593 -2.762822,9.15835 -11.027528,3.99501 z m 600.90477,-0.73103 c -1.61292,-2.90949 -2.54476,-12.38094 -2.55397,-25.95862 -0.0136,-20.02827 0.39127,-22.21307 6.414,-34.61153 3.53572,-7.27858 10.33494,-19.40781 15.10938,-26.95381 l 8.68085,-13.72003 1.7038,19.82795 c 2.99573,34.86199 0.85514,54.29213 -7.74686,70.31881 -3.52679,6.57086 -13.91415,15.67816 -17.8818,15.67816 -0.65227,0 -2.3287,-2.06142 -3.7254,-4.58093 z M 85.675376,429.79518 c 0,-17.21414 9.870708,-36.08332 26.917614,-51.45651 7.17725,-6.47261 42.01916,-26.81196 45.92963,-26.81196 0.58641,0 -1.75365,3.4357 -5.20019,7.6349 -3.44656,4.19918 -11.64218,15.88056 -18.21247,25.95861 -13.15971,20.18538 -26.1546,34.88211 -38.862798,43.95234 -10.122237,7.22454 -10.571786,7.25526 -10.571786,0.72262 z m 563.347744,-0.15145 c -11.78074,-7.97607 -28.58284,-25.1865 -32.86894,-33.66767 -5.86018,-11.59598 -15.89247,-26.44045 -23.12013,-34.21012 -3.61546,-3.88661 -6.57356,-7.84053 -6.57356,-8.78653 0,-0.946 9.0017,3.1029 20.00375,8.99756 15.68313,8.40264 22.75137,13.70157 32.72491,24.53331 12.67876,13.76972 15.52058,19.77181 19.82615,41.87434 1.56072,8.01199 0.22959,8.17973 -9.99218,1.25911 z M 88.28758,361.31658 C 75.419021,338.97116 75.917003,324.44887 91.130851,278.40272 l 5.661391,-17.13478 6.718008,20.87942 c 5.29348,16.45201 6.71307,24.18674 6.69465,36.4765 -0.0256,17.1136 -5.40191,34.93689 -13.418722,44.48552 l -4.428488,5.27469 -4.07011,-7.06749 z m 560.42575,4.16197 c -1.19037,-1.51472 -4.72953,-7.79303 -7.86485,-13.95184 -5.30138,-10.41377 -5.69162,-12.76602 -5.57323,-33.59354 0.11362,-19.98757 0.78812,-24.14701 6.27286,-38.68344 3.71256,-9.83945 6.60422,-15.07872 7.30408,-13.23382 8.70626,22.95119 17.02053,53.91436 17.06395,63.54773 0.0388,8.60269 -6.44555,27.79681 -11.58904,34.30445 -2.82356,3.57246 -3.84227,3.86471 -5.61377,1.61046 z M 108.68505,353.05368 c 6.84402,-22.11216 35.12512,-43.24462 68.73805,-51.36303 19.75732,-4.77191 21.14892,-4.03219 9.41194,5.00306 -5.78874,4.45623 -13.70329,11.14886 -17.58791,14.87256 -16.6368,15.94756 -49.10076,35.99742 -58.36833,36.04845 -2.84301,0.0157 -3.30986,-0.95492 -2.19375,-4.56104 z m 518.70797,3.11774 c -7.07345,-1.85388 -27.98123,-14.69291 -38.94529,-23.91539 -6.01141,-5.05656 -17.36316,-14.44555 -25.22611,-20.86442 -7.86297,-6.4189 -13.9921,-11.98239 -13.62027,-12.36337 1.87543,-1.92141 26.9348,4.66291 41.46706,10.8954 18.63453,7.99185 33.91328,21.06527 40.81352,34.9225 6.30375,12.65935 5.76709,14.01334 -4.48891,11.32528 z M 125.80865,289.93858 c -3.00684,-14.19636 -1.2423,-31.27731 4.4371,-42.95159 2.8075,-5.77097 10.84433,-17.62277 17.85963,-26.33736 l 12.75509,-15.84474 1.38902,13.28858 c 3.04669,29.1471 -3.92867,53.38514 -20.09002,69.80914 -5.78487,5.87887 -11.41797,10.68883 -12.51802,10.68883 -1.10004,0 -2.82482,-3.8938 -3.8328,-8.65286 z m 478.02073,-0.32829 c -5.57522,-5.26805 -11.68167,-13.82747 -14.87263,-20.847 -4.84401,-10.65603 -5.48808,-14.69447 -6.12043,-38.37688 l -0.70672,-26.46763 7.63037,8.9765 c 22.11901,26.02118 28.13394,37.252 29.78642,55.61596 1.09963,12.22003 -1.78282,30.10552 -4.84428,30.0585 -0.77759,-0.0119 -5.67032,-4.04369 -10.87273,-8.95945 z M 155.51546,282.166 c 16.97903,-16.45941 33.98028,-22.28255 64.8934,-22.22683 21.85027,0.0394 25.72728,2.15671 12.92883,7.06067 -5.25191,2.01239 -16.70303,7.28519 -25.44689,11.71739 -17.41996,8.83002 -35.90544,13.67626 -52.37534,13.73097 l -10.64328,0.0353 10.64328,-10.31754 z m 410.079,7.424 c -6.55793,-1.37205 -20.41892,-6.64759 -30.80226,-11.72347 -10.38335,-5.07587 -22.22325,-10.45755 -26.31089,-11.95929 -10.70702,-3.93359 -5.69002,-5.93123 14.98874,-5.96807 31.77,-0.0566 51.91336,7.34192 68.8452,25.28642 l 6.84836,7.25795 -10.82284,-0.19946 c -5.95257,-0.1097 -16.18842,-1.32204 -22.74631,-2.69408 z M 210.3529,247.77487 c -4.11077,-0.81673 -8.03879,-2.06353 -8.72896,-2.77061 -2.25388,-2.30912 3.21067,-6.95534 13.78159,-11.71781 15.87128,-7.15042 40.56713,-6.70222 63.52917,1.15299 9.56361,3.27166 17.38838,6.67573 17.38838,7.56463 0,0.88888 -3.35347,1.62376 -7.45214,1.63307 -4.0987,0.009 -17.28904,1.36569 -29.31185,3.01419 -23.32925,3.19882 -37.17051,3.51484 -49.20619,1.12354 z m 281.71358,-0.0414 c -6.55791,-0.91369 -19.34469,-2.35152 -28.41505,-3.19521 -9.07038,-0.8437 -15.77731,-2.24996 -14.90433,-3.12505 3.35614,-3.36411 32.09078,-11.9 44.41376,-13.19349 14.91619,-1.56568 34.52683,2.65999 43.8252,9.44336 6.6239,4.83229 7.17641,6.99792 2.27743,8.92666 -5.68105,2.23661 -34.36402,2.93169 -47.19701,1.14373 z m -309.88479,-7.38156 c -4.35086,-17.76033 8.67872,-39.78557 33.84347,-57.20902 6.45595,-4.4699 13.65614,-9.16316 16.00041,-10.42943 l 4.26237,-2.30232 -3.54371,14.11456 c -4.98641,19.86075 -10.58838,30.67121 -22.10561,42.65845 -8.15411,8.48687 -22.37084,18.47208 -26.30012,18.47208 -0.47157,0 -1.44211,-2.38697 -2.15681,-5.30432 z m 368.30539,1.24283 c -9.33927,-5.05016 -27.28291,-25.23294 -31.88469,-35.86347 -3.80166,-8.78225 -10.43254,-33.26478 -9.30657,-34.36185 0.36071,-0.35141 7.13943,3.66167 15.06382,8.91801 16.03293,10.63481 33.31226,30.01623 36.49109,40.9303 2.41793,8.30164 1.66968,22.847 -1.21801,23.67681 -1.09298,0.31409 -5.20852,-1.17082 -9.14564,-3.2998 z M 245.72983,204.42778 c 4.14469,-19.71804 14.40296,-27.82977 45.62515,-36.07802 7.65088,-2.02122 15.56603,-4.36953 17.58922,-5.21845 6.97732,-2.92771 -2.07116,10.83412 -17.55159,26.69415 -14.87105,15.23571 -26.51557,21.21922 -41.2947,21.21922 -5.4577,0 -5.68619,-0.34606 -4.36808,-6.6169 z m 231.56764,3.26406 c -4.84398,-1.73713 -12.3429,-6.04528 -16.66425,-9.57367 -7.37075,-6.01821 -29.69686,-34.04753 -28.27779,-35.50141 0.35701,-0.36574 4.99543,0.71431 10.30764,2.40009 5.31219,1.68579 15.34552,4.71505 22.29627,6.7317 19.35397,5.61528 34.06249,20.79715 34.06249,35.1588 0,3.33037 -1.25967,4.11838 -6.45855,4.04014 -3.5522,-0.0535 -10.42179,-1.51849 -15.26581,-3.25565 z"
           style="fill:#b08000;fill-opacity:0.56862745;stroke:none" />
      </g>
    </g>
  </g>
</svg>
